<?xml version="1.0" encoding="UTF-8" standalone="no"?>
<svg width="300px" height="300px" viewBox="0 0 300 300" version="1.1" xmlns="http://www.w3.org/2000/svg" xmlns:xlink="http://www.w3.org/1999/xlink">
    <!-- Generator: Sketch 3.6 (26304) - http://www.bohemiancoding.com/sketch -->
    <title>Button</title>
    <desc>Created with Sketch.</desc>
    <defs>
        <filter x="-50%" y="-50%" width="200%" height="200%" filterUnits="objectBoundingBox" id="filter-1">
            <feGaussianBlur stdDeviation="0" in="SourceGraphic" result="blur"></feGaussianBlur>
        </filter>
    </defs>
    <g id="Page-1" stroke="none" stroke-width="1" fill="none" fill-rule="evenodd">
        <g id="Button" transform="translate(30.000000, 30.000000)">
            <rect id="BG" stroke="#C0392B" stroke-width="30" fill="#E74C3C" filter="url(#filter-1)" x="0" y="0" width="240" height="240"></rect>
            <g id="Group" transform="translate(45.000000, 80.000000)">
                <rect id="Rectangle" stroke="#F7EBE8" stroke-width="4" x="0" y="0" width="150" height="75" rx="6"></rect>
                <circle id="Oval-1" stroke="#F7EBE8" stroke-width="4" cx="71.5" cy="45.5" r="10.5"></circle>
                <circle id="Oval-2" stroke="#F7EBE8" stroke-width="4" cx="72" cy="46" r="21"></circle>
                <path d="M73.9791847,47.9791847 L112.162951,57.8786797 L83.8786797,86.1629509 L73.9791847,47.9791847 Z M98.1464466,72.8535534 L125.146447,99.8535534 L125.853553,99.1464466 L98.8535534,72.1464466 L98.1464466,72.8535534 Z" id="Arrow" stroke="#F7EBE8" stroke-width="4" fill="#E74C3C"></path>
                <path d="M80.2734375,46.0056152 C82.494291,46.7762875 86.7765733,47.6750645 89.0220947,48.2659912 C90.7434651,48.7189834 93.6390547,49.6496965 95.6479492,50" id="Line-1" stroke="#E74C3C" stroke-width="3" stroke-linecap="square"></path>
                <path d="M75.8234584,69.3001508 C75.6394947,67.6651469 74.6144962,63.0589277 73.3338293,58.9634886 C71.738905,53.8630872 72.2571323,55.3586748 71.9416609,54.0179214" id="Line-2" stroke="#E74C3C" stroke-width="3" stroke-linecap="square"></path>
            </g>
        </g>
    </g>
</svg>