<?xml version="1.0" encoding="UTF-8" standalone="no"?>
<svg width="81px" height="181px" viewBox="0 0 81 181" version="1.1" xmlns="http://www.w3.org/2000/svg" xmlns:xlink="http://www.w3.org/1999/xlink" xmlns:sketch="http://www.bohemiancoding.com/sketch/ns">
    <!-- Generator: Sketch 3.3.2 (12043) - http://www.bohemiancoding.com/sketch -->
    <title>Slice 1</title>
    <desc>Created with Sketch.</desc>
    <defs></defs>
    <g id="Page-1" stroke="none" stroke-width="1" fill="none" fill-rule="evenodd" sketch:type="MSPage">
        <g id="bigplay" sketch:type="MSLayerGroup" transform="translate(3.000000, 3.000000)">
            <g id="dark" sketch:type="MSShapeGroup" opacity="0.75">
                <path d="M59.5,36.5 L25.75,55.9856 L25.75,17.0144 L59.5,36.5 L59.5,36.5 Z" id="Polygon" fill="#333333"></path>
                <path d="M0,37.5 C0,16.7891 16.7891,0 37.5,0 C58.2109,0 75,16.7891 75,37.5 C75,58.2109 58.2109,75 37.5,75 C16.7891,75 0,58.2109 0,37.5 L0,37.5 Z" id="Ellipse" stroke="#333333" stroke-width="5"></path>
            </g>
            <g id="light" transform="translate(0.000000, 100.000000)" sketch:type="MSShapeGroup">
                <path d="M59.5,36.5 L25.75,55.9856 L25.75,17.0144 L59.5,36.5 L59.5,36.5 Z" id="Polygon2" fill="#333333"></path>
                <path d="M0,37.5 C0,16.7891 16.7891,0 37.5,0 C58.2109,0 75,16.7891 75,37.5 C75,58.211 58.2109,75 37.5,75 C16.7891,75 0,58.211 0,37.5 L0,37.5 Z" id="Ellipse2" stroke="#333333" stroke-width="5"></path>
            </g>
        </g>
    </g>
</svg>