<?xml version="1.0" encoding="UTF-8" standalone="no"?>
<svg width="300px" height="300px" viewBox="0 0 300 300" version="1.1" xmlns="http://www.w3.org/2000/svg" xmlns:xlink="http://www.w3.org/1999/xlink">
    <!-- Generator: Sketch 3.6 (26304) - http://www.bohemiancoding.com/sketch -->
    <title>Person</title>
    <desc>Created with Sketch.</desc>
    <defs>
        <filter x="-50%" y="-50%" width="200%" height="200%" filterUnits="objectBoundingBox" id="filter-1">
            <feGaussianBlur stdDeviation="0" in="SourceGraphic" result="blur"></feGaussianBlur>
        </filter>
    </defs>
    <g id="Page-1" stroke="none" stroke-width="1" fill="none" fill-rule="evenodd">
        <g id="Person" transform="translate(30.000000, 30.000000)">
            <rect id="BG" stroke="#C0392B" stroke-width="30" fill="#E74C3C" filter="url(#filter-1)" x="0" y="0" width="240" height="240"></rect>
            <g id="Group" transform="translate(52.000000, 39.000000)" stroke="#F7EBE8" stroke-width="4">
                <path d="M68,103.289949 C87.882251,103.289949 104,68.2506268 104,36.4890449 C104,4.72746301 87.882251,0 68,0 C48.117749,0 32,4.72746301 32,36.4890449 C32,68.2506268 48.117749,103.289949 68,103.289949 Z" id="Oval-6"></path>
                <path d="M44.5,86.5 C44.5,86.5 13.949161,100.675673 6.18273306,111.972296 C-0.717505687,122.009007 0.5,150.5 0.5,150.5" id="Line" stroke-linecap="square"></path>
                <path d="M135.5,86.5 C135.5,86.5 104.949161,100.675673 97.1827331,111.972296 C90.2824943,122.009007 91.5,150.5 91.5,150.5" id="Line-Copy-3" stroke-linecap="square" transform="translate(113.458582, 118.500000) scale(-1, 1) translate(-113.458582, -118.500000) "></path>
                <path d="M0.5,152 L135,152" id="Line" stroke-linecap="square"></path>
            </g>
        </g>
    </g>
</svg>