<?xml version="1.0" encoding="UTF-8" standalone="no"?>
<svg width="300px" height="300px" viewBox="0 0 300 300" version="1.1" xmlns="http://www.w3.org/2000/svg" xmlns:xlink="http://www.w3.org/1999/xlink">
    <!-- Generator: Sketch 3.6 (26304) - http://www.bohemiancoding.com/sketch -->
    <title>Testimonial</title>
    <desc>Created with Sketch.</desc>
    <defs>
        <filter x="-50%" y="-50%" width="200%" height="200%" filterUnits="objectBoundingBox" id="filter-1">
            <feGaussianBlur stdDeviation="0" in="SourceGraphic" result="blur"></feGaussianBlur>
        </filter>
    </defs>
    <g id="Page-1" stroke="none" stroke-width="1" fill="none" fill-rule="evenodd">
        <g id="Testimonial" transform="translate(30.000000, 30.000000)">
            <rect id="BG" stroke="#C0392B" stroke-width="30" fill="#E74C3C" filter="url(#filter-1)" x="0" y="0" width="240" height="240"></rect>
            <g id="Group" transform="translate(29.666667, 21.000000)" stroke="#F7EBE8" stroke-width="4">
                <path d="M90.3333333,156.632328 C100.079535,156.632328 107.980392,139.45619 107.980392,123.886787 C107.980392,108.317384 100.079535,106 90.3333333,106 C80.5871319,106 72.6862745,108.317384 72.6862745,123.886787 C72.6862745,139.45619 80.5871319,156.632328 90.3333333,156.632328 Z" id="Oval-6"></path>
                <path d="M78.8137255,148.401961 C78.8137255,148.401961 63.837824,155.35082 60.0307515,160.88838 C56.6482815,165.808337 57.245098,179.77451 57.245098,179.77451" id="Line" stroke-linecap="square"></path>
                <path d="M123.421569,148.401961 C123.421569,148.401961 108.445667,155.35082 104.638595,160.88838 C101.256125,165.808337 101.852941,179.77451 101.852941,179.77451" id="Line-Copy-3" stroke-linecap="square" transform="translate(112.616952, 164.088235) scale(-1, 1) translate(-112.616952, -164.088235) "></path>
                <path d="M57.245098,180.509804 L123.176471,180.509804" id="Line" stroke-linecap="square"></path>
                <path d="M108.968995,77.1629039 C149.732203,73.4437041 180.333333,57.7704287 180.333333,39 C180.333333,17.4608948 140.038961,0 90.3333333,0 C40.6277059,0 0.333333333,17.4608948 0.333333333,39 C0.333333333,57.7704287 30.9344633,73.4437041 71.6976718,77.1629039 L90.3333333,89 L108.968995,77.1629039 Z" id="Oval-8"></path>
                <polygon id="Star-1" points="50.0882353 45.25 42.7409196 48.8036954 44.1441321 41.2768477 38.2000288 35.9463046 46.4145775 34.8481523 50.0882353 28 53.7618931 34.8481523 61.9764417 35.9463046 56.0323385 41.2768477 57.4355509 48.8036954 "></polygon>
                <polygon id="Star-2" points="90.0882353 45.25 82.7409196 48.8036954 84.1441321 41.2768477 78.2000288 35.9463046 86.4145775 34.8481523 90.0882353 28 93.7618931 34.8481523 101.976442 35.9463046 96.0323385 41.2768477 97.4355509 48.8036954 "></polygon>
                <polygon id="Star-3" points="130.088235 45.25 122.74092 48.8036954 124.144132 41.2768477 118.200029 35.9463046 126.414577 34.8481523 130.088235 28 133.761893 34.8481523 141.976442 35.9463046 136.032339 41.2768477 137.435551 48.8036954 "></polygon>
            </g>
        </g>
    </g>
</svg>